<?xml version="1.0" encoding="UTF-8"?>
<svg width="72px" height="72px" viewBox="0 0 72 72" version="1.1" xmlns="http://www.w3.org/2000/svg" xmlns:xlink="http://www.w3.org/1999/xlink">
    <!-- Generator: Sketch 51.3 (57544) - http://www.bohemiancoding.com/sketch -->
    <title>Custom Preset</title>
    <desc>Created with Sketch.</desc>
    <defs>
        <linearGradient x1="50%" y1="0%" x2="50%" y2="100%" id="linearGradient-1">
            <stop stop-color="#00638E" offset="0%"></stop>
            <stop stop-color="#003B4B" offset="100%"></stop>
        </linearGradient>
    </defs>
    <g id="Custom-Preset" stroke="none" stroke-width="1" fill="none" fill-rule="evenodd">
        <g id="youtube-download" transform="translate(0.000000, 11.000000)" fill-rule="nonzero">
            <path d="M70.5170019,7.88794049 C69.6866923,4.80393368 67.2550716,2.37231293 64.1710648,1.5420034 C58.5368215,0 35.9998487,0 35.9998487,0 C35.9998487,0 13.4628759,0 7.82863267,1.48269558 C4.80393368,2.31300511 2.31300511,4.80393368 1.48269558,7.88794049 C0,13.5221837 0,25.2058249 0,25.2058249 C0,25.2058249 0,36.9487739 1.48269558,42.5237093 C2.31300511,45.6077161 4.74462586,48.0393368 7.82863267,48.8696464 C13.5221837,50.4116497 35.9998487,50.4116497 35.9998487,50.4116497 C35.9998487,50.4116497 58.5368215,50.4116497 64.1710648,48.9289541 C67.2550716,48.0986446 69.6866923,45.6670239 70.5170019,42.5830171 C71.9996974,36.9487739 71.9996974,25.2651327 71.9996974,25.2651327 C71.9996974,25.2651327 72.0590052,13.5221837 70.5170019,7.88794049 Z" id="path7" fill="url(#linearGradient-1)"></path>
            <polygon id="polygon9" fill="#F2F2F2" transform="translate(36.000000, 23.000000) rotate(90.000000) translate(-36.000000, -23.000000) " points="45 23 27 13 27 33"></polygon>
            <rect id="Rectangle" fill="#F2F2F2" x="26" y="38" width="20" height="3"></rect>
            <rect id="Rectangle" fill="#F2F2F2" x="23" y="32" width="3" height="9"></rect>
            <rect id="Rectangle" fill="#F2F2F2" x="46" y="32" width="3" height="9"></rect>
        </g>
    </g>
</svg>